<?xml version="1.0" standalone="no"?>
<!DOCTYPE svg PUBLIC "-//W3C//DTD SVG 20010904//EN"
 "http://www.w3.org/TR/2001/REC-SVG-20010904/DTD/svg10.dtd">
<svg version="1.0" xmlns="http://www.w3.org/2000/svg"
 width="96.000000pt" height="96.000000pt" viewBox="0 0 96.000000 96.000000"
 preserveAspectRatio="xMidYMid meet">

<g transform="translate(0.000000,96.000000) scale(0.100000,-0.100000)"
fill="#000000" stroke="none">
<path d="M158 822 c-52 -44 -68 -63 -68 -84 0 -18 6 -29 20 -33 25 -8 45 5
124 77 54 49 58 56 47 76 -19 35 -51 26 -123 -36z"/>
<path d="M679 858 c-11 -20 -7 -27 47 -76 78 -71 99 -85 122 -77 24 7 34 39
18 58 -32 38 -135 117 -154 117 -12 0 -27 -10 -33 -22z"/>
<path d="M385 787 c-109 -37 -186 -103 -232 -202 -24 -51 -28 -73 -28 -145 0
-72 4 -94 28 -146 130 -282 522 -281 654 1 24 51 28 73 28 145 0 72 -4 94 -28
146 -57 123 -177 204 -311 211 -41 1 -88 -3 -111 -10z m123 -159 c8 -8 12 -47
12 -107 l0 -96 58 -30 c50 -26 57 -34 57 -60 0 -44 -35 -43 -120 3 l-70 37 -3
119 c-3 122 3 146 37 146 9 0 22 -5 29 -12z"/>
</g>
</svg>
